<svg height="443pt" viewBox="-6 0 443 443" width="443pt" xmlns="http://www.w3.org/2000/svg"><path d="m339.894531 22.179688c-1.898437-2.28125-4.710937-3.597657-7.679687-3.601563h-33.839844c-4.636719-11.230469-15.585938-18.5664062-27.738281-18.578125h-141c-12.152344.0117188-23.101563 7.347656-27.738281 18.582031h-51.898438c-27.601562.03125-49.96875 22.398438-50 50v324.417969c.03125 27.601562 22.398438 49.96875 50 50h330.273438c27.601562-.03125 49.96875-22.398438 50-50v-258.773438c0-2.339843-.820313-4.601562-2.316407-6.398437zm-220.257812 7.820312c.007812-5.519531 4.480469-9.992188 10-10h141c5.519531.007812 9.996093 4.480469 10 10v99.945312h-161zm211 393h-231v-123.972656h231zm79.640625-30c-.019532 16.5625-13.441406 29.980469-30 30h-29.640625v-133.972656c0-5.523438-4.476563-10-10-10h-251c-5.523438 0-10 4.476562-10 10v133.972656h-29.640625c-16.558594-.019531-29.980469-13.441406-30-30v-324.417969c.019531-16.558593 13.441406-29.980469 30-30h49.640625v101.363281c0 5.523438 4.476562 10 10 10h181c5.523437 0 10-4.476562 10-10v-101.363281h26.898437l82.746094 99.265625v255.152344zm0 0"/></svg>