<svg height="443pt" viewBox="0 -2 443 442" width="443pt" xmlns="http://www.w3.org/2000/svg"><path d="m439.117188 165.984375-211.222657-163.394531c-3.601562-2.785156-8.625-2.785156-12.230469-.007813l-211.773437 163.394531c-2.453125 1.894532-3.890625 4.816407-3.890625 7.917969v86.3125c0 3.8125 2.167969 7.292969 5.589844 8.976563 3.421875 1.679687 7.5 1.269531 10.519531-1.058594l31.761719-24.5v185.820312c0 5.519532 4.476562 10 10 10h323.5c5.523437 0 10-4.480468 10-10v-188.796874l35.511718 27.472656c3.015626 2.332031 7.097657 2.746094 10.523438 1.066406 3.421875-1.679688 5.59375-5.164062 5.59375-8.976562v-86.316407c0-3.09375-1.433594-6.015625-3.882812-7.910156zm-177.40625 253.460937h-78.695313v-99.589843h78.695313zm109.660156 0h-89.660156v-109.59375c0-5.519531-4.480469-10-10-10h-98.695313c-5.523437 0-10 4.480469-10 10v109.589844h-95.144531v-191.25l153.898437-118.738281 149.601563 115.722656zm51.628906-179.613281-195.105469-150.925781c-3.601562-2.785156-8.625-2.789062-12.230469-.011719l-195.664062 150.96875v-61.054687l201.765625-155.671875 201.234375 155.664062zm0 0"/></svg>